<svg xmlns="http://www.w3.org/2000/svg" viewBox="0 0 1280.000000 1189.000000" preserveAspectRatio="xMidYMid meet">
  <g transform="translate(0.000000,1189.000000) scale(0.100000,-0.100000)" fill="currentColor" stroke="none">
    <path d="M11650 11884 c-123 -24 -246 -98 -290 -175 -22 -39 -355 -383 -512
-528 l-58 -54 -58 17 c-178 50 -299 41 -537 -39 -88 -29 -174 -56 -191 -59
-22 -5 -46 -26 -87 -77 -68 -82 -155 -149 -235 -180 -69 -26 -166 -30 -302
-10 -106 15 -234 10 -376 -14 -264 -46 -415 -104 -564 -216 -50 -38 -87 -59
-98 -56 -9 2 -69 20 -132 40 -220 67 -524 116 -860 137 -222 14 -874 13 -942
-1 -235 -49 -400 -122 -593 -263 -17 -13 -27 -13 -75 0 -71 18 -147 18 -356
-2 l-172 -17 -46 32 c-56 39 -150 86 -191 95 -16 4 -58 21 -91 38 -73 35 -159
46 -232 28 -28 -6 -90 -35 -139 -63 -48 -27 -109 -58 -134 -68 -26 -10 -105
-61 -175 -115 -264 -197 -505 -353 -1149 -742 -258 -156 -490 -300 -515 -321
-66 -55 -108 -115 -126 -179 -9 -31 -25 -74 -36 -95 -18 -37 -18 -38 2 -85 46
-108 42 -200 -15 -320 -29 -61 -51 -90 -114 -148 -51 -48 -89 -93 -110 -134
-29 -54 -32 -68 -28 -123 2 -34 7 -71 10 -82 6 -16 -4 -28 -46 -60 -234 -179
-492 -417 -655 -605 -390 -450 -547 -742 -647 -1205 -62 -290 -102 -446 -140
-550 -20 -55 -51 -161 -70 -235 -64 -257 -124 -426 -265 -735 l-81 -180 12
-410 c20 -644 20 -646 -24 -890 -50 -273 -81 -399 -121 -493 -100 -234 -113
-541 -33 -754 46 -120 139 -239 237 -304 21 -14 37 -31 35 -37 -17 -51 -161
-559 -181 -640 -60 -240 -38 -393 70 -502 83 -82 95 -86 590 -195 429 -94 465
-100 571 -100 275 0 446 72 494 207 7 21 24 61 37 89 41 87 116 472 160 817
l18 137 40 11 c168 45 294 191 331 383 27 142 20 250 -39 591 l-54 309 59 86
c32 47 94 126 139 177 l80 92 35 148 c89 375 120 476 186 603 36 70 100 150
118 150 5 0 25 -19 46 -42 21 -24 110 -117 199 -207 135 -136 235 -228 532
-486 14 -12 53 -96 103 -220 43 -110 104 -256 135 -325 53 -117 173 -347 199
-380 13 -17 363 -248 415 -274 31 -16 32 -18 26 -69 -8 -69 10 -215 41 -324
14 -50 64 -167 114 -268 84 -171 93 -184 163 -250 128 -121 264 -171 495 -182
l132 -6 152 -336 c83 -185 165 -361 181 -391 103 -187 244 -260 478 -247 92 5
124 13 231 50 413 147 845 360 1307 644 171 105 944 618 1162 771 259 183 526
390 708 551 51 46 153 122 226 171 352 233 715 585 1019 988 145 192 174 358
94 527 -41 85 -120 171 -299 322 -105 89 -171 174 -258 329 l-51 92 31 33 c72
78 96 180 65 284 -36 125 -61 158 -301 401 -200 201 -238 235 -297 264 -56 27
-81 34 -134 34 l-66 1 7 80 c24 290 18 399 -26 551 -18 64 -46 107 -317 480
l-297 409 -78 275 c-43 151 -80 280 -83 286 -2 6 30 18 78 28 195 42 629 314
871 545 54 51 134 138 180 194 46 55 92 111 103 124 18 21 35 26 140 38 252
30 413 89 700 257 199 117 307 202 469 369 156 161 293 384 326 532 5 23 13
59 17 79 7 33 45 71 309 311 218 199 324 288 386 325 194 117 233 233 140 412
-21 41 -66 127 -99 191 -64 125 -144 251 -224 358 -146 192 -470 515 -556 553
-45 20 -169 32 -223 22z"/>
  </g>
</svg>
