<svg xmlns="http://www.w3.org/2000/svg" viewBox="0 0 1280.000000 1100.000000" preserveAspectRatio="xMidYMid meet">
  <g transform="translate(0.000000,1100.000000) scale(0.100000,-0.100000)" fill="currentColor" stroke="none">
    <path d="M2020 10688 c0 -322 -4 -390 -40 -733 -23 -222 -38 -302 -81 -452
-44 -154 -109 -306 -215 -504 -94 -176 -289 -580 -324 -669 -9 -25 -49 -124
-88 -220 -142 -353 -249 -681 -337 -1030 -91 -365 -126 -566 -210 -1200 -99
-741 -247 -1590 -416 -2385 -75 -351 -106 -480 -214 -885 l-86 -325 -4 -235
-4 -235 66 -190 66 -190 121 -171 c129 -182 146 -199 391 -379 139 -102 409
-226 780 -357 697 -247 1264 -378 2000 -463 121 -14 287 -35 369 -46 142 -19
157 -19 330 -5 100 8 262 18 361 21 205 6 401 25 625 58 l155 24 26 84 c15 46
63 203 108 349 44 146 125 411 180 590 278 911 379 1246 379 1260 -1 8 36 134
80 280 88 288 276 910 352 1165 27 88 51 153 53 145 3 -8 33 -118 67 -245 34
-126 95 -351 135 -500 41 -148 133 -488 205 -755 72 -267 167 -618 211 -780
173 -636 231 -850 335 -1232 l107 -398 31 -4 c77 -11 360 -28 628 -36 518 -17
1356 23 1998 96 528 59 1050 202 1626 444 144 61 609 292 682 340 287 185 384
490 303 955 -10 61 -37 214 -59 340 -22 127 -52 309 -66 405 -14 96 -52 348
-85 560 -33 212 -99 639 -146 950 -136 892 -244 1546 -335 2015 -10 55 -28
147 -39 205 -125 657 -126 664 -282 1195 -111 375 -339 948 -672 1686 -64 140
-127 289 -141 330 -62 187 -91 427 -106 880 -9 306 -14 399 -26 507 l-6 52
-4394 0 -4394 0 0 -312z"/>
  </g>
</svg>
