<svg version="1.1" id="Layer_1"
  xmlns="http://www.w3.org/2000/svg" width="17" height="17" viewBox="0 0 365 365">
  <path fill="transparent" d="M 623 622.6 C 555.4 622.6 488.2 622.6 421.1 622.7 C 417.8 622.7 416.9 622.2 416.9 618.7 C 417 499.7 417 380.8 416.9 261.8 C 416.9 258 417.8 257.5 421.3 257.5 C 540.1 257.6 658.9 257.6 777.7 257.5 C 781.1 257.5 782.1 258 782.1 261.8 C 782 380.7 782 499.7 782.1 618.7 C 782.1 622.2 781.3 622.7 777.9 622.7 C 726.5 622.6 675 622.6 623 622.6 z"/>
  <path fill="#2664b8" d="M 286.7 92.1 C 303.4 80.5 325.7 89 330.3 107.7 C 333.5 120.4 327.7 132.9 314.3 139.8 C 306.5 145.4 298.7 143.8 291 140.4 C 283 137 277.9 130.6 274.5 122.1 C 273.1 118.1 273.6 114.3 273.8 110.1 C 275.6 104.4 276.6 98.8 281.2 94.9 C 282.7 93.6 284.2 92.3 286.7 92.1 z"/>
  <path fill="#af2a7f" d="M 213.3 321.8 C 210.7 337.6 199.9 347.1 185 347 C 171 346.9 160.1 337.1 158 322.3 C 156 319.3 156.7 316.5 157.4 313.6 C 157.9 311.6 158.6 309.5 158.3 306.9 C 159.3 304.5 160.6 302.6 162.2 300.4 C 174.9 287.4 195.1 286.6 208.9 300.5 C 209.9 302.7 211.3 304.2 212.6 306.2 C 212.8 309.6 213.1 312.5 214 315.3 C 214.6 317.5 214.7 319.5 213.3 321.8 z"/>
  <path fill="#af2a7f" d="M 157.7 48.4 C 159.1 34.7 169.9 23.6 182.2 23 C 199.1 22.3 210.3 31 213.1 47.3 C 216.2 52.9 213 57.5 211.5 62.2 C 210.8 64.5 209 66.2 207.7 68.8 C 205.2 73.9 200.6 75.6 196.3 77.6 C 185.3 82.4 170.4 78.6 163.1 69.1 C 160.5 64.1 157.9 59.6 156.9 54.4 C 156.6 52.4 156.4 50.5 157.7 48.4 z"/>
  <path fill="#af297f" d="M 58.5 141.3 C 49.8 136.9 43.4 131.2 40.7 121.7 C 36.2 105.5 48.9 88.3 65.8 87.9 C 72.1 87.8 77.9 89 83.6 92.6 C 91.1 94.4 93.6 100.2 96 106.2 C 96.2 106.9 96.2 107.7 96.7 108.9 C 99.4 124.4 93.3 135.5 78.5 142.3 C 72.6 143.4 67.2 145.1 61.5 143.2 C 60.5 142.8 59.5 142.5 58.5 141.3 z"/>
  <path fill="#2664b8" d="M 79.9 274.4 C 62.6 282.2 44.8 272 40.8 256.9 C 37.2 243.7 44 230.2 57.8 224.6 C 61.9 218.7 67.6 220.8 72.8 221 C 74.2 221 75.6 221.9 77.4 222.4 C 83.1 223.6 87.1 226.5 90.4 231.2 C 95.7 240.3 97.7 249.5 95.4 259.8 C 93.4 265 90.9 269.4 86.7 272.6 C 84.7 274.1 82.7 275 79.9 274.4 z"/>
  <path fill="#2664b8" d="M 313.6 224.5 C 328.7 231.9 334.8 246 329.2 260.1 C 324.4 272.1 309.2 281.4 292.3 274.8 C 286.1 275.1 280.2 270.8 277.4 264 C 276.9 263 276.9 261.8 276.3 260.4 C 275.3 255.6 274.1 251.3 274.5 246.3 C 274.6 243.9 275.5 242.2 276.3 240 C 278.3 234.1 283 230.8 286.8 226.3 C 288.4 225.3 289.9 224.8 291.5 223.7 C 292.5 223.1 293.2 222.8 294.4 222.4 C 299.2 220 304 220.3 308.7 220.9 C 310.7 221.2 312.3 222.3 313.6 224.5 z"/>
  <path fill="#be1380" d="M 277.7 260.1 C 280.9 266.5 285.2 271.3 291.6 274.5 C 270.3 288.8 247.8 301.4 225.9 314.9 C 222.5 316.9 219.1 318.9 215.3 320.9 C 213.1 316.6 213.7 311.4 210.2 307.2 C 208.9 305.8 208.3 304.4 208 302.5 C 206.2 298.6 209.5 297.8 211.3 296.6 C 222.9 289.4 234.6 282.4 246.4 275.6 C 253.4 271.5 259.8 266.4 267.6 263.7 C 269.4 263.1 269.5 261.1 271.1 259.9 C 271.9 259.5 272.4 259.4 273.3 259.3 C 275 259.1 276.3 259 277.7 260.1 z"/>
  <path fill="#be1380" d="M 79.9 274.6 C 85.6 271.4 89.9 266.8 92.9 260.4 C 94.8 257.6 96.8 259.7 99.1 259.9 C 118.1 271.2 137 282.2 155.6 293.5 C 157.6 294.7 159.6 295.8 161.5 297.1 C 163 298.1 164.8 299.1 164.1 301.7 C 163.1 303.5 162.3 305 161.3 306.7 C 157.7 310.7 157.6 315.5 156.2 320.3 C 130.5 305.6 105.1 290.6 79.9 274.6 z"/>
  <path fill="#c01381" d="M 95.3 109.4 C 92.6 103.1 88.9 97.9 84.1 93.1 C 102.2 81.6 120.6 70.4 138.9 59.2 C 144 56.2 149.2 53.2 154.6 50.1 C 157.5 49.7 156.8 51.7 157 53 C 157.8 58 159.3 62.7 162.5 67.1 C 165.1 71.6 161.5 72.7 159.1 74.1 C 147.4 81.4 135.5 88.4 123.7 95.5 C 116.3 99.9 108.9 104.4 101.4 108.7 C 99.7 109.7 97.9 111.5 95.3 109.4 z"/>
  <path fill="#bf1381" d="M 286.8 91.8 C 282.2 96.6 278.2 101.7 276.4 108.7 C 274.4 110.6 272.6 110 270.7 108.9 C 251 97.2 231.3 85.3 211.7 73.4 C 210.3 72.5 208.3 71.7 208.5 69 C 211.1 62.4 214.3 56.4 214.7 49.2 C 230.1 56.9 244.3 66.2 259 74.9 C 268.3 80.3 277.4 86 286.8 91.8 z"/>
  <path fill="#c01381" d="M 313.9 224.4 C 307.6 222.8 301.2 222.4 294.3 224.2 C 291.9 222.8 292.6 220.6 292.5 218.7 C 292.3 208.6 292.8 198.4 292.2 187.8 C 291.9 185.8 291.6 184.2 292 182.2 C 292.9 170.3 292.3 158.9 292.5 147.4 C 292.6 141.4 292.5 141.4 298.3 142 C 303.2 142.4 308.2 142.7 313.3 140.5 C 313.8 168.2 313.9 196 313.9 224.4 z"/>
  <path fill="#c21382" d="M 78.3 224.5 C 71.6 222.9 65.3 222.3 58.5 224.4 C 58.1 198.3 58.1 172.1 58.1 145.5 C 58.8 144.2 59.7 143.1 60.5 143.4 C 66.3 145 72.2 142.5 78.4 144 C 80.7 146.1 80.4 148.5 80.4 150.8 C 80.5 173.1 80.5 195.4 80.4 217.7 C 80.4 219.9 80.8 222.4 78.3 224.5 z"/>
  <path fill="#3b5997" d="M 313.8 140.3 C 309.3 142.8 304.4 142.8 299.7 142.1 C 294.6 141.2 293.9 143.5 293.9 147.7 C 294.1 159.1 294 170.5 293.9 182.4 C 290.6 182.7 291.6 180.1 291.6 178.4 C 291.4 169.6 291.4 160.8 291.5 152 C 291.6 145.4 288.2 141.5 282.4 138.5 C 274.9 136.2 272.8 130.4 271.8 123.5 C 272.8 121.4 274 120.9 276.2 121.8 C 278.8 125.3 280 129.2 282.7 132.2 C 291.2 141.5 301.7 142.8 313.6 140 C 314 139.9 313.9 140.3 313.8 140.3 z"/>
  <path fill="#930f63" d="M 78.3 144.8 C 71.6 145.6 65.3 146.6 58.6 145.1 C 58.1 143.9 58.1 142.8 58.2 141.3 C 64.6 141.7 71 142.3 77.7 140.1 C 79.7 141.3 79.9 142.8 78.3 144.8 z"/>
  <path fill="#9e116a" d="M 214.9 48.6 C 215.5 55.9 213.3 62.2 210.1 68.6 C 208.6 70.5 207.5 69.8 206.2 68.1 C 210.6 62.2 212.8 55.8 213.1 48.1 C 213.7 47.9 214.2 48.1 214.9 48.6 z"/>
  <path fill="#9e116a" d="M 163.2 68.4 C 158.3 66 157.8 61.3 156.6 57 C 156 54.9 155.7 52.8 155.1 50.3 C 155.8 49.4 156.6 48.8 157.7 48.1 C 157.8 55 160.4 61.2 164 67.4 C 164.1 68.1 163.9 68.4 163.2 68.4 z"/>
  <path fill="#a91272" d="M 210 307.3 C 214.7 310.2 214.8 315.2 215 320.6 C 214.5 321.3 214.1 321.7 213.4 322.1 C 213.1 317.2 211.7 312.4 210 307.3 z"/>
  <path fill="#a91272" d="M 156.1 320.7 C 156.1 315.7 156.3 310.8 160.8 307.1 C 159.7 311.6 157.9 316.1 158 321.5 C 157.4 321.6 156.8 321.2 156.1 320.7 z"/>
  <path fill="transparent" d="M 162.6 68.6 C 163.2 68.3 163.5 68.2 163.9 67.9 C 172.5 75.6 182.1 79.2 193.6 75.9 C 198.3 74.5 202.3 72 205.8 68.1 C 207.3 67.6 208.3 68.2 209.7 68.9 C 231.9 82.2 253.7 95.4 275.9 108.8 C 276.1 113 275.7 117.1 276.5 121.6 C 275.5 122.5 274.4 122.9 273.1 123.6 C 272.3 127.5 269.1 128.4 266.6 129.9 C 244.7 143.1 222.5 156 200.4 169 C 171 186.4 141.6 203.7 112.1 221 C 105.6 224.7 99.5 229 92.2 232.1 C 91.1 232.4 90.4 232.4 89.3 232.2 C 85.7 229.5 82.6 226.6 78.2 224.9 C 77.9 198.5 77.9 172.2 77.9 145.5 C 77.9 143.7 77.9 142.3 78 140.5 C 91.1 134.2 96.1 123.8 95 109.5 C 101.3 106.4 106.9 102.4 112.7 99 C 129.3 89 145.8 78.9 162.6 68.6 z"/>
  <path fill="transparent" d="M 164.2 302 C 146.3 290.5 127.9 280.2 109.9 269.2 C 106.4 267 102.8 264.9 99.3 262 C 101.1 259.4 103.6 259.6 105.9 259.6 C 159.3 259.5 212.8 259.5 266.2 259.6 C 268.3 259.6 270.6 259.3 272.6 261.5 C 272.3 263.8 270.3 264.1 268.8 265 C 248.7 277.3 228.5 289.4 208.1 301.9 C 207.1 302.1 206.3 302 205.7 301.3 C 195.4 289.8 175.4 290 164.2 302 z"/>
  <path fill="#355a9c" d="M 89.1 232.5 C 89.5 231.8 89.9 231.4 90.7 231 C 95.8 233.4 98.1 237.4 98.8 242.8 C 99.4 247.8 101 252.6 100.5 257.6 C 100.4 258.9 100.8 260.3 99.4 261.6 C 99.1 261.9 99 262.1 99 262.2 C 97.1 261.5 95.4 260.8 93.4 260.1 C 96.2 250.4 94.6 241.3 89.1 232.5 z"/>
  <path fill="#5275c0" d="M 281.7 137.3 C 288.9 139 292.9 144.1 293.1 150.9 C 293.3 161.3 292.4 171.7 293.7 182.5 C 293.9 183.7 292.9 184.5 293.8 185.7 C 293.1 196.9 293.7 207.7 293.5 218.6 C 293.5 220.5 293.8 222.6 292.3 224.7 C 290.9 225.7 289.8 226.3 288 226.8 C 286.4 225.7 286.4 224.6 286.8 223.4 C 288.7 217.8 288.5 212 288.5 206.2 C 288.5 190.1 288.4 174 288.6 157.9 C 288.6 151.8 287.7 146.4 282.6 142.4 C 281.8 141.6 281.1 140.6 281 138.9 C 281.1 138.2 281.3 137.9 281.7 137.3 z"/>
  <path fill="#5275c0" d="M 288 227.1 C 284.7 231.1 280.2 234.3 278.1 239.7 C 276.7 241.2 276.4 243 275.5 244.8 C 275.2 245.4 275 245.6 274.5 245.9 C 273.6 246.1 273 246 272.2 245.5 C 271.4 244 270.7 242.7 271.3 241.4 C 273.7 235.3 277 229.8 282.8 226.3 C 284.4 225.4 285.8 224.7 287.6 226.6 C 287.9 226.9 288 227 288 227.1 z"/>
  <path fill="#3b5997" d="M 277.9 260 C 276.8 260.6 275.6 260.8 274.1 261 C 269.6 255.7 269.8 249.4 274.6 245.3 C 275 245 275 245 275 245 C 275.2 244.9 275.3 244.7 275.8 244.8 C 275.7 250 276.5 254.8 277.9 260 z"/>
  <path fill="#4568ab" d="M 292.2 225 C 293.9 216.5 292.6 207.8 293 199.2 C 293.2 195.1 292.5 190.9 293.7 186.4 C 293.9 198.4 293.9 210.8 293.9 223.7 C 293.4 224.4 293 224.7 292.2 225 z"/>
  <path fill="#486bb1" d="M 276.2 244.7 C 275.8 245 275.7 245 275.3 245 C 275.5 243.3 275.8 241.5 277.6 240.2 C 277.4 241.5 276.9 243 276.2 244.7 z"/>
  <path fill="#3e67b1" d="M 274.7 245 C 272.3 249.9 274.1 255 273.8 260.5 C 273.5 261.1 273.3 261.3 273.1 261.7 C 215.3 261.9 157.6 261.9 99.5 262 C 98.7 260.1 98 258.3 98.1 256.6 C 98.7 247.4 96.3 239.1 91 231.2 C 107.1 220.2 124.2 211.1 140.7 201.1 C 158.2 190.5 176 180.3 193.6 169.9 C 211.7 159.2 229.8 148.6 248 138 C 256 133.3 264.1 128.7 272.6 124 C 276 128.1 276.7 133.7 281.8 136.8 C 282 137 282 137.5 282 137.7 C 280.7 141.6 277.3 142.8 274.4 144.6 C 272.6 145.8 270.8 146.9 268.8 148.3 C 263.7 150.1 260 153.5 255.5 156.2 C 250 157.8 246.4 161.8 241.5 164.3 C 235.5 166.7 230.8 170.7 225.2 173.8 C 219.4 176.3 214.8 180 209.5 183.3 C 202.7 186.2 197 190.4 190.8 194.2 C 180.2 199.9 170.4 206.1 160.4 211.9 C 145.5 220.5 130.8 229.3 116 238 C 113.7 239.3 111.3 240.4 109.6 243 C 136.5 243.2 163.3 244.2 190.6 242.9 C 196.4 242.2 201.8 242.4 207.6 242.9 C 213.1 242.3 218 242.5 223.5 242.7 C 229 242.5 234 242.4 239.5 242.7 C 244 242.5 248.1 242.6 252.6 242.2 C 257.7 243.2 262.4 242 267.5 242.8 C 269.5 242.9 271.1 242.9 272.6 244.6 C 273.4 244.9 273.9 245 274.7 245 z"/>
  <path fill="#597fd0" d="M 266.8 146.5 C 271.8 143.5 276.1 140.1 281.6 138.1 C 282.2 138.2 282.3 138.6 282.6 138.8 C 291.2 143.9 291.3 152.1 291.1 160.9 C 290.7 178.3 291 195.8 291 213.2 C 291 217.8 290.4 222.2 288.1 226.6 C 279.2 229.4 275.7 236.4 273 244.6 C 271.6 244.9 270.2 244.9 268.4 244.9 C 264.7 242.1 264.5 238.2 264.7 234.4 C 265.4 219.8 264.4 205.2 264.7 190.6 C 264.8 183.1 264 175.6 265.2 168.2 C 265.6 165.3 265.1 162.5 264.8 159.7 C 264.3 155.3 264 150.9 266.8 146.5 z"/>
  <path fill="#4568ab" d="M 190.4 244.6 C 187.4 245.3 184.7 245.9 182.1 246 C 156.6 246 131.1 246 105.6 246 C 104.2 246 102.2 246.6 101.6 244.9 C 101 243.4 102.8 242.8 103.9 242.2 C 132.4 225.5 160.9 208.9 189.7 192.1 C 192.4 192.9 192.3 195.1 192.4 197 C 192.6 211.1 192.6 225.2 192.4 239.3 C 192.4 241.1 192.2 242.9 190.4 244.6 z"/>
  <path fill="#567bcb" d="M 266.7 146.3 C 267.3 157.7 268.4 169.4 267.6 180.9 C 266.9 189.9 267.6 198.9 267.5 207.8 C 267.3 219.8 266.8 232 268 244.5 C 263.3 244.9 258.6 245 253.5 245 C 249.9 241.1 251.1 236.3 251.1 232.1 C 250.9 217.7 250.7 203.3 251 188.8 C 251.1 182.4 250.8 175.9 250.7 169.4 C 250.6 164.3 250.8 159.3 253.8 154.3 C 258.1 151.5 262.3 148.9 266.7 146.3 z"/>
  <path fill="#5378c5" d="M 253.7 154.1 C 253.7 167.3 252.7 180.8 253.3 194.1 C 253.9 207.7 252.9 221.2 253.8 234.8 C 254.1 237.9 254.1 241.1 253.1 244.6 C 249 245 245 245 240.5 245 C 236.6 242 236.3 237.9 236.6 234 C 237.2 227.8 236.4 221.7 236.7 215.6 C 237.3 201.5 236.4 187.5 236.5 173.4 C 236.6 169.6 237.4 166 239.8 162.4 C 244.5 159.4 248.9 156.9 253.7 154.1 z"/>
  <path fill="#4f74bf" d="M 239.7 162.2 C 239 175.1 240.2 188.1 239.6 201.1 C 239.1 211.8 240.8 222.5 239.2 233.3 C 238.7 236.8 239.7 240.5 240 244.6 C 235 245 230 245 224.5 245 C 221.8 243.3 221.6 240.8 221.6 238.3 C 221.5 218.6 221.5 198.9 221.6 179.2 C 221.6 176.9 221.8 174.6 223.7 172.4 C 228.6 167.9 234.3 165.7 239.7 162.2 z"/>
  <path fill="#4c6fb7" d="M 223.6 172.1 C 224 196 224 220 224 244.5 C 219 245 214 245 208.5 245 C 205.9 243.3 204.7 241.2 204.8 238.3 C 205.3 225.7 203.8 213.1 205 200.5 C 205.3 198 205 195.5 204.8 193 C 204.5 189 205.5 185.2 207.8 181.4 C 213.1 178 217.9 174.5 223.6 172.1 z"/>
  <path fill="#486bb1" d="M 207.7 181.2 C 207.7 191.5 206.7 202.1 207.2 212.6 C 207.7 223.2 206.4 233.8 208 244.6 C 202.3 245 196.6 245 190.5 245 C 190 227.6 190 210.3 190 192.5 C 195.3 187.7 201.6 184.9 207.7 181.2 z"/>
</svg>
