<svg xmlns="http://www.w3.org/2000/svg" viewBox="0 0 1009.000000 1280.000000" preserveAspectRatio="xMidYMid meet">
  <g transform="translate(0.000000,1280.000000) scale(0.100000,-0.100000)" fill="currentColor" stroke="none">
    <path d="M4985 12753 c-73 -56 -276 -236 -442 -391 -110 -102 -179 -186 -674
-813 l-551 -700 -55 -127 c-71 -164 -128 -320 -147 -402 -14 -57 -14 -72 -1
-130 36 -155 131 -408 233 -614 56 -115 100 -211 98 -214 -3 -2 -352 -237
-776 -521 l-771 -517 -349 -624 c-209 -372 -361 -656 -379 -704 -16 -45 -193
-515 -394 -1046 l-365 -965 -91 -730 c-110 -882 -237 -1942 -245 -2045 -3 -41
-22 -296 -41 -566 l-36 -491 41 -114 c46 -126 156 -489 250 -818 33 -118 62
-216 63 -217 1 -2 83 15 182 38 l180 40 284 -16 c156 -9 285 -15 286 -14 2 2
-8 146 -22 322 l-25 318 67 100 66 100 -21 196 c-12 108 -25 230 -31 270 -5
40 -9 96 -9 124 0 28 51 312 114 632 l114 581 7 270 7 270 65 210 c35 116 98
359 139 540 l75 330 10 264 10 265 108 205 c59 114 125 231 147 261 35 49 39
52 41 30 1 -14 9 -234 18 -490 22 -679 44 -1231 55 -1425 9 -142 13 -172 29
-190 34 -38 41 -63 51 -207 19 -251 97 -972 141 -1293 43 -324 152 -851 275
-1334 30 -118 54 -222 54 -232 0 -11 2 -19 5 -19 3 0 87 18 188 39 925 199
1663 301 2096 288 151 -4 219 -12 476 -55 301 -51 1032 -165 1545 -242 151
-22 284 -43 296 -45 19 -4 38 32 187 353 l166 357 16 215 c14 197 92 1107 165
1925 33 378 36 423 90 1530 22 451 41 827 43 835 5 28 172 -289 227 -430 33
-84 33 -87 41 -320 15 -390 26 -516 53 -615 47 -170 150 -689 220 -1110 14
-82 39 -271 56 -420 17 -148 40 -337 52 -420 20 -141 21 -164 10 -380 -6 -126
-23 -374 -37 -550 l-27 -320 56 -377 c31 -208 56 -380 56 -383 0 -3 249 -5
554 -5 l555 0 10 53 c5 28 27 142 47 252 21 113 66 305 105 443 l69 243 -40
897 -41 897 -190 1245 -190 1245 -274 870 c-150 479 -279 890 -287 915 -7 24
-112 228 -235 452 -356 653 -392 713 -489 824 -118 134 -188 223 -207 260 -21
41 -68 78 -192 149 -170 98 -831 423 -1193 586 -44 20 -61 33 -56 41 5 7 98
153 208 323 109 171 214 333 231 360 l32 50 -341 647 -341 647 -369 451 -369
452 -161 122 c-274 209 -491 356 -525 356 -9 0 -43 -21 -76 -47z"/>
  </g>
</svg>
