<svg xmlns="http://www.w3.org/2000/svg" viewBox="0 0 640.000000 1280.000000" preserveAspectRatio="xMidYMid meet">
  <g transform="translate(0.000000,1280.000000) scale(0.100000,-0.100000)" fill="currentColor" stroke="none">
    <path d="M1430 12583 l0 -170 -37 -24 c-29 -18 -49 -46 -84 -115 -255 -508
-486 -2524 -714 -6224 -63 -1035 -98 -1657 -225 -4040 -44 -816 -84 -1525
-100 -1740 -5 -74 -10 -152 -10 -172 l0 -38 1233 0 1233 0 13 158 c59 752 180
1959 401 4027 197 1845 246 2314 355 3405 35 360 66 664 68 675 8 58 46 -1222
72 -2480 26 -1254 38 -2631 31 -3605 -6 -890 -21 -1983 -30 -2117 l-4 -63
1261 0 1260 0 -7 208 c-3 114 -8 936 -11 1827 -10 2798 -27 4712 -55 5945 -57
2510 -158 3911 -312 4313 -30 77 -32 92 -35 240 -4 156 -4 157 -27 157 -13 0
-117 -7 -232 -16 -179 -14 -461 -16 -1979 -17 -1755 -2 -1799 -1 -2017 29
l-48 7 0 -170z"/>
  </g>
</svg>
